<svg id="Слой_1" data-name="Слой 1" xmlns="http://www.w3.org/2000/svg" viewBox="0 0 32 32"><defs><style>.cls-1{fill:#020202;}</style></defs><title>icon</title><path class="cls-1" d="M22.79,1.13a3.19,3.19,0,0,0-3.24-1,9.39,9.39,0,0,0-5.09,3.08H14.3L13.83,4c-1.88,2.65-3.49,7.17-3.73,15.06a11.63,11.63,0,0,1-1.55,5.57,6,6,0,0,0-.8,5,2.37,2.37,0,0,0,.74,1.08l.2.2A3.14,3.14,0,0,0,11.06,32a3.25,3.25,0,0,0,.61-.06,3.15,3.15,0,0,0,2.39-2A34.73,34.73,0,0,0,15.65,24c.31-1.82,1.43-3.36,2.85-5.31A35.25,35.25,0,0,0,24.12,8.26,7.48,7.48,0,0,0,22.79,1.13Zm-3-.07a2.24,2.24,0,0,1,2.26.75,5.19,5.19,0,0,1,1.1,2l-.36-.62H20.76l-1-1.78h-1C19.13,1.26,19.51,1.15,19.82,1.07Zm.87,12.53L20.36,13l-.43-.75.84-1.46h1.31A30.73,30.73,0,0,1,20.69,13.6ZM15.77,21H14.63l-.44-.75-.44-.75.87-1.51h1.74L17,19.07C16.55,19.73,16.13,20.35,15.77,21Zm-1.21,3.44-.37-.65L13.76,23l.44-.75.44-.75h.86a8.17,8.17,0,0,0-.82,2.37C14.64,24.05,14.6,24.23,14.56,24.41Zm-1.44,5.16a2.23,2.23,0,0,1-.11.25h-1.4l-.87-1.51.86-1.48h1.69l.47.82C13.54,28.39,13.32,29,13.13,29.57Zm-1.43-17h1.57l.44.75.44.75-.44.75-.44.75H11.52l-.19-.32Q11.48,13.87,11.7,12.62Zm3.64-8.9h1l.44.75.44.75L16.79,6l-.44.75H14.61L14,5.64A11.17,11.17,0,0,1,15.34,3.72Zm2.35-1.78h1.74l.87,1.51-.44.75L19.43,5H17.69l-.44-.75-.44-.75Zm-.46,6.84-.44.75-.44.75H14.61l-.87-1.51.87-1.51h1.74l.44.75ZM16.82,7l.44-.75.44-.75h1.74l.44.75L20.3,7l-.44.75-.44.75H17.69l-.44-.75Zm-.47,3.84.87,1.5-.88,1.52H14.6l-.87-1.51.87-1.51Zm.47-.29.44-.75L17.69,9h1.74l.44.75.43.75L19.46,12H17.65Zm3.08-1.78.87-1.51h1.74l.56,1q-.36,1-.74,2h-1.6Zm.87-2-.87-1.51.87-1.51h1.74l.87,1.51-.87,1.51ZM14.15,7l-.88,1.53H12.7a17.35,17.35,0,0,1,1-2.34Zm-.88,2.06.87,1.51-.44.75-.44.75H11.79a27,27,0,0,1,.74-3Zm-1.74,7.1h1.74l.44.75.44.75-.87,1.51H11.52l-.41-.7q0-.93.1-1.79Zm-.57,4.6.6-1h1.74l.44.75.44.75-.44.75-.44.75H11.55l-.73-1.26C10.87,21.25,10.91,21,10.95,20.77ZM11.09,23l-.86,1.48H9.75a12.93,12.93,0,0,0,.89-2.27Zm.46.27h1.74l.44.75.44.75-.44.75-.42.73H11.62l-.9-1.56Zm2.25,3.21.39-.68.13-.22c-.1.43-.21.85-.32,1.25Zm2.54-9.08H14.6l-.87-1.51.87-1.51h1.74l.87,1.5Zm.51-3.36.84-1.46h1.81l.4.69.44.75-.44.75-.44.75H17.71ZM23,7l.52-.91a6.61,6.61,0,0,1-.21,1.46ZM16.81,2.4l-.45.79h-.5A8.37,8.37,0,0,1,16.81,2.4ZM9.44,25.1l0-.07h.73l.91,1.58-.39.68-.44.75H8.55l0-.06A6.11,6.11,0,0,1,9.44,25.1ZM9.19,30a1.52,1.52,0,0,1-.47-.63,5.91,5.91,0,0,1-.17-.81h1.74l.44.75.44.75-.44.75-.07.12a2.16,2.16,0,0,1-1.21-.69Zm2.3,1-.24,0,.37-.64h1A2.17,2.17,0,0,1,11.49,31Zm6.21-12.83-.3.41-.55-.94.88-1.52h1.42C18.64,16.83,18.15,17.5,17.69,18.14Z"/></svg>