<svg id="Слой_1" data-name="Слой 1" xmlns="http://www.w3.org/2000/svg" viewBox="0 0 32 32"><defs><style>.cls-1{fill:#020202;}</style></defs><title>icon</title><path class="cls-1" d="M16.87,5.5a.64.64,0,0,0,.64-.64V1.52a.64.64,0,0,0-1.28,0V4.86A.64.64,0,0,0,16.87,5.5Z"/><path class="cls-1" d="M25.61,8.16,30,3.74a.64.64,0,0,0-.91-.91L24.7,7.26a.64.64,0,0,0,.91.91Z"/><path class="cls-1" d="M16.87,26.5a.64.64,0,0,0-.64.64v3.34a.64.64,0,1,0,1.28,0V27.14A.64.64,0,0,0,16.87,26.5Z"/><path class="cls-1" d="M25.61,23.84a.64.64,0,0,0-.91,0h0a.64.64,0,0,0,0,.9l4.42,4.42a.64.64,0,0,0,.9-.91Z"/><rect class="cls-1" x="27.38" y="15.36" width="4.62" height="1.28" rx="0.64" ry="0.64"/><path class="cls-1" d="M16.87,8.94a7,7,0,0,0-4.37,1.54L8.57,6.55V3.26a.64.64,0,1,0-1.28,0v2L6,4a.64.64,0,0,0-.9,0h0a.64.64,0,0,0,0,.91l1.2,1.2H4.44a.64.64,0,0,0-.64.64h0a.64.64,0,0,0,.64.64H7.59l4,4a7,7,0,0,0-1.69,4H4.25L1.92,13a.64.64,0,0,0-.91.91l1.42,1.42H.64A.64.64,0,0,0,0,16H0a.64.64,0,0,0,.64.64h1.7L1,18a.64.64,0,0,0,.91.91l2.23-2.23H9.89a7,7,0,0,0,2,4.21L8.13,24.59H4.84a.64.64,0,0,0,0,1.28h2L5.58,27.14a.64.64,0,0,0,0,.91h0a.64.64,0,0,0,.91,0l1.2-1.2v1.87a.64.64,0,0,0,1.28,0V25.56l3.88-3.87a7,7,0,1,0,4-12.75Zm0,12.84A5.82,5.82,0,1,1,22.69,16,5.83,5.83,0,0,1,16.87,21.77Z"/></svg>