<svg id="Слой_1" data-name="Слой 1" xmlns="http://www.w3.org/2000/svg" viewBox="0 0 32 32"><defs><style>.cls-1{fill:#020202;}</style></defs><title>icon</title><path class="cls-1" d="M31.54,10.92,28.17,5.08H22.3L19.37,0H12.63L9.7,5.08H3.83L.46,10.92,3.39,16,.46,21.08l3.37,5.84H9.7L12.63,32h6.74l2.93-5.08h5.87l3.37-5.84L28.61,16Zm-1.76,0-2.49,4.32h-5l-2.49-4.32L22.31,6.6h5Zm-16.28,9.4-1.25-2.16L11,16l1.25-2.16,1.25-2.16h5l1.25,2.16L21,16l-1.25,2.16-1.25,2.16Zm0-18.79h5L21,5.84,19.74,8l-1.25,2.16h-5L12.26,8,11,5.84ZM4.71,6.6h5l1.25,2.16,1.25,2.16-1.25,2.16L9.7,15.24h-5L2.22,10.92ZM2.22,21.08l2.49-4.32h5l1.25,2.16,1.25,2.16-1.25,2.16L9.7,25.4h-5Zm16.28,9.4h-5L11,26.16,12.26,24l1.25-2.16h5L19.74,24,21,26.16Zm8.8-5.08h-5l-2.49-4.32,2.49-4.32h5l2.49,4.32Z"/></svg>