<svg id="Слой_1" data-name="Слой 1" xmlns="http://www.w3.org/2000/svg" viewBox="0 0 32 32"><defs><style>.cls-1{fill:#020202;}</style></defs><title>icon</title><path class="cls-1" d="M30,15.82l-13.48-6a2.85,2.85,0,0,0-2.84.3,7.57,7.57,0,0,1-6.79,1.41,5.63,5.63,0,0,1-1.76-1,6.12,6.12,0,0,0-1.48-.88A2.64,2.64,0,0,0,1.18,10,2.68,2.68,0,0,0,0,12.18v7.51a2.8,2.8,0,0,0,2.8,2.8H29.2a2.8,2.8,0,0,0,2.8-2.8v-.79A3.38,3.38,0,0,0,30,15.82Zm-.05,2H16.83V17.4A1.14,1.14,0,0,1,18,16.26h2.64a2.81,2.81,0,0,0,2.55-1.64l6.15,2.73A1.7,1.7,0,0,1,29.93,17.83ZM14.65,11.48a1.18,1.18,0,0,1,1.18-.12l5.82,2.58a1.14,1.14,0,0,1-1,.65H18a2.81,2.81,0,0,0-2.81,2.81v.43H9a7.3,7.3,0,0,0-2.43-4.65A9.24,9.24,0,0,0,14.65,11.48ZM1.72,13a5.65,5.65,0,0,1,5.58,4.82H1.66V13Zm.94-1.85a1,1,0,0,1,.36.07,3.55,3.55,0,0,1,.72.4,7.27,7.27,0,0,0-1.66-.27l0,0A1,1,0,0,1,2.66,11.17ZM29.2,20.83H2.8a1.14,1.14,0,0,1-1.13-1.13v-.2H30.34v.2A1.14,1.14,0,0,1,29.2,20.83Z"/></svg>