<svg id="Слой_1" data-name="Слой 1" xmlns="http://www.w3.org/2000/svg" viewBox="0 0 32 32"><title>icon</title><path d="M24.61,14.06A5.77,5.77,0,0,0,22.91,10a6.18,6.18,0,0,1-1.82-4.4V2.85A2.85,2.85,0,0,0,18.23,0H13.77a2.85,2.85,0,0,0-2.85,2.85V5.56A6.18,6.18,0,0,1,9.09,10a5.81,5.81,0,0,0,0,8.21,7.84,7.84,0,0,0,1.1,1V26.2a5.8,5.8,0,0,0,11.61,0V19.1a9.83,9.83,0,0,0,1.1-.94A5.77,5.77,0,0,0,24.61,14.06Zm-4,12.13a4.61,4.61,0,0,1-9.22,0V17.58a4.63,4.63,0,0,1,2.28-4,2.35,2.35,0,0,0,4.67,0,4.63,4.63,0,0,1,2.28,4ZM14.82,13.28V8.56a1.18,1.18,0,1,1,2.35,0v4.72a1.18,1.18,0,0,1-2.35,0Zm7,4.28a5.82,5.82,0,0,0-3.44-5.28V8.56a2.37,2.37,0,1,0-4.73,0v3.72a5.82,5.82,0,0,0-3.44,5.3h0l-.26-.26a4.62,4.62,0,0,1,0-6.53,7.36,7.36,0,0,0,2.17-5.24V2.85a1.66,1.66,0,0,1,1.66-1.66h4.47a1.66,1.66,0,0,1,1.66,1.66V5.56a7.36,7.36,0,0,0,2.17,5.24,4.62,4.62,0,0,1,0,6.53Z"/><path d="M16,24.43a2.37,2.37,0,0,0-2.37,2.37v.59a2.37,2.37,0,1,0,4.73,0V26.8A2.37,2.37,0,0,0,16,24.43Zm1.18,3a1.18,1.18,0,0,1-2.35,0V26.8a1.18,1.18,0,1,1,2.35,0Z"/></svg>