<svg id="Слой_1" data-name="Слой 1" xmlns="http://www.w3.org/2000/svg" viewBox="0 0 32 32"><defs><style>.cls-1{fill:#020202;}</style></defs><title>icon</title><path class="cls-1" d="M16,0A16,16,0,1,0,32,16,16,16,0,0,0,16,0ZM30.73,16c0,.08,0,.15,0,.23-2.26-.79-8.79-3.47-10-8.5A14,14,0,0,1,26,5.21,14.68,14.68,0,0,1,30.73,16ZM19.61,8.58c1.8,5.61,9,8.32,11,9A14.59,14.59,0,0,1,29.44,22c-2.21-.61-11-3.48-12.74-10.42A24.3,24.3,0,0,1,19.61,8.58Zm-2.1-7.23a14.58,14.58,0,0,1,3.36.77A26.14,26.14,0,0,0,14.4,6.25C10.74,9.4,6.08,15.12,4.13,24.68a14.74,14.74,0,0,1-1-1.61A37.17,37.17,0,0,1,5.14,13C7.65,6.16,11.81,2.28,17.53,1.49Zm-4.69.28C4.93,5.54,2.67,15.87,2,20.68A14.69,14.69,0,0,1,12.83,1.62ZM5.17,26C8.29,8.47,20.65,3.48,22.54,2.82a14.73,14.73,0,0,1,2.25,1.39c-5,1.48-9.55,6-13.35,13A62,62,0,0,0,7.09,27.7,14.83,14.83,0,0,1,5.17,26Zm6.65-6.62c2.34,5.33,9.57,7.91,12.56,8.77a14.66,14.66,0,0,1-4.79,2.17c-1.08-.26-7.51-2-9.65-6.72C10.45,22.26,11.08,20.82,11.82,19.33ZM8.18,28.46c.18-.61.56-1.8,1.14-3.35,1.81,3,5,4.68,7.37,5.58-.23,0-.46,0-.69,0A14.62,14.62,0,0,1,8.18,28.46Zm17.44-1.34c-1.87-.48-11.31-3.17-13-9.34a41.29,41.29,0,0,1,3.12-5c2.3,6.78,10.5,9.6,13.12,10.35A14.82,14.82,0,0,1,25.63,27.13Z"/></svg>