<svg id="Слой_1" data-name="Слой 1" xmlns="http://www.w3.org/2000/svg" viewBox="0 0 32 32"><defs><style>.cls-1{fill:#020202;}</style></defs><title>icon</title><path class="cls-1" d="M25.24,7.72,29.92,3a.68.68,0,1,0-1-1L24.28,6.76a.68.68,0,0,0,1,1Z"/><path class="cls-1" d="M25.24,24.28a.68.68,0,0,0-1,0h0a.68.68,0,0,0,0,1L29,29.92a.68.68,0,0,0,1-1Z"/><rect class="cls-1" x="27.12" y="15.32" width="4.88" height="1.35" rx="0.68" ry="0.68"/><path class="cls-1" d="M16,27.1a.68.68,0,0,0-.68.68v3.53a.68.68,0,0,0,1.35,0V27.78A.68.68,0,0,0,16,27.1Z"/><path class="cls-1" d="M6.76,24.28,2.08,29a.68.68,0,0,0,1,1l4.68-4.68a.68.68,0,1,0-1-1Z"/><path class="cls-1" d="M16,4.9a.68.68,0,0,0,.68-.68V.69a.68.68,0,1,0-1.35,0V4.22A.68.68,0,0,0,16,4.9Z"/><path class="cls-1" d="M3,2.08a.68.68,0,0,0-1,1L6.76,7.72a.68.68,0,0,0,1,0h0a.68.68,0,0,0,0-1Z"/><rect class="cls-1" y="15.32" width="4.88" height="1.35" rx="0.68" ry="0.68"/><path class="cls-1" d="M16,9.66A6.34,6.34,0,1,0,22.34,16,6.35,6.35,0,0,0,16,9.66Zm0,11.43A5.08,5.08,0,1,1,21.08,16,5.09,5.09,0,0,1,16,21.08Z"/></svg>