<?xml version="1.0" encoding="utf-8"?>
<!-- Generator: Adobe Illustrator 16.0.0, SVG Export Plug-In . SVG Version: 6.00 Build 0)  -->
<!DOCTYPE svg PUBLIC "-//W3C//DTD SVG 1.1//EN" "http://www.w3.org/Graphics/SVG/1.1/DTD/svg11.dtd">
<svg version="1.1" id="Слой_1" xmlns="http://www.w3.org/2000/svg" xmlns:xlink="http://www.w3.org/1999/xlink" x="0px" y="0px"
	 width="231px" height="53px" viewBox="0 0 231 53" enable-background="new 0 0 231 53" xml:space="preserve">
<g>
	<path fill="#2C628F" stroke="#FFFFFF" stroke-width="0.25" stroke-miterlimit="10" d="M18.361,16.085
		c1.086-1.481,1.678-3.258,1.678-5.43c0-1.58-0.296-2.961-0.888-3.949c-0.592-1.086-1.481-1.875-2.567-2.566
		c-0.987-0.593-2.073-0.987-3.257-1.284c-1.185-0.197-2.764-0.395-4.541-0.395H0.197v30.109h4.048V20.626h5.626l10.069,11.945h5.232
		L13.82,19.442C15.696,18.652,17.275,17.566,18.361,16.085z M8.292,17.27H4.245V5.917h4.738c1.086,0,1.974,0.099,2.764,0.197
		c0.79,0.197,1.48,0.395,2.073,0.79c0.691,0.494,1.185,0.987,1.481,1.678c0.296,0.691,0.494,1.481,0.494,2.271
		c0,1.086-0.099,2.073-0.395,2.764c-0.296,0.691-0.691,1.382-1.382,1.975s-1.481,0.987-2.369,1.283
		C10.662,17.171,9.576,17.27,8.292,17.27z"/>
	<path fill="#2C628F" stroke="#FFFFFF" stroke-width="0.25" stroke-miterlimit="10" d="M36.525,9.373
		c-3.159,0-5.726,1.086-7.601,3.159c-1.875,2.172-2.863,5.035-2.863,8.688c0,3.652,0.987,6.613,2.863,8.688
		c1.875,2.172,4.442,3.158,7.601,3.158c3.159,0,5.726-1.086,7.602-3.158c1.875-2.172,2.863-5.035,2.863-8.688
		c0-3.653-0.987-6.614-2.863-8.688C42.251,10.458,39.685,9.373,36.525,9.373z M41.363,27.734c-1.185,1.48-2.764,2.172-4.738,2.172
		c-2.073,0-3.653-0.691-4.837-2.172c-1.185-1.481-1.678-3.653-1.678-6.417c0-2.961,0.592-5.133,1.678-6.516
		c1.185-1.382,2.764-2.172,4.837-2.172c2.073,0,3.652,0.691,4.738,2.172c1.086,1.481,1.678,3.554,1.678,6.516
		C43.041,24.18,42.449,26.352,41.363,27.734z"/>
	<path fill="#2C628F" stroke="#FFFFFF" stroke-width="0.25" stroke-miterlimit="10" d="M63.476,20.034
		c-0.592-0.099-1.283-0.296-2.172-0.494c-0.888-0.198-1.678-0.296-2.369-0.494c-1.283-0.296-2.172-0.691-2.764-1.185
		c-0.592-0.395-0.888-1.086-0.888-2.073c0-1.086,0.493-1.875,1.48-2.369s2.172-0.79,3.554-0.79c1.382,0,2.665,0.198,4.047,0.691
		c1.382,0.494,2.566,1.086,3.554,1.777h0.197v-4.047c-0.888-0.494-2.073-0.889-3.455-1.185c-1.382-0.296-2.764-0.494-4.047-0.494
		c-1.481,0-2.764,0.197-3.949,0.592c-1.185,0.395-2.172,0.888-2.863,1.48c-0.79,0.691-1.382,1.382-1.777,2.172
		c-0.395,0.79-0.592,1.678-0.592,2.666c0,1.481,0.395,2.764,1.283,3.751c0.79,0.987,2.271,1.777,4.245,2.271
		c0.691,0.197,1.48,0.395,2.369,0.493c0.888,0.099,1.58,0.296,2.073,0.395c1.481,0.296,2.468,0.691,2.962,1.185
		s0.79,1.086,0.79,1.975c0,1.185-0.494,1.974-1.382,2.566c-0.987,0.494-2.271,0.791-3.949,0.791c-1.382,0-2.764-0.297-4.245-0.791
		c-1.48-0.493-2.764-1.283-4.047-2.171h-0.197v4.246c0.987,0.493,2.073,0.888,3.554,1.283c1.382,0.395,2.961,0.592,4.64,0.592
		c2.961,0,5.331-0.691,7.009-1.975c1.678-1.283,2.566-3.061,2.566-5.034c0-1.678-0.494-2.961-1.481-3.949
		C66.635,21.12,65.252,20.429,63.476,20.034z"/>
	<path fill="#2C628F" stroke="#FFFFFF" stroke-width="0.25" stroke-miterlimit="10" d="M78.283,3.449h-3.85v6.516h-2.566v3.159
		h2.566v12.044c0,2.764,0.592,4.739,1.777,5.922c1.185,1.283,2.961,1.876,5.232,1.876c0.691,0,1.382-0.099,2.271-0.197
		c0.888-0.099,1.58-0.296,2.369-0.493V28.82h-0.197c-0.296,0.098-0.79,0.296-1.481,0.493s-1.283,0.296-1.974,0.296
		c-1.086,0-1.876-0.099-2.37-0.395c-0.493-0.297-0.888-0.691-1.185-1.185c-0.296-0.593-0.494-1.185-0.592-1.876
		c-0.099-0.691-0.099-1.579-0.099-2.764V13.223h7.897V9.965h-7.897V3.449H78.283z"/>
	<path fill="#2C628F" stroke="#FFFFFF" stroke-width="0.25" stroke-miterlimit="10" d="M99.606,9.373
		c-3.159,0-5.726,1.086-7.602,3.159c-1.875,2.172-2.863,5.035-2.863,8.688c0,3.652,0.987,6.613,2.863,8.688
		c1.876,2.172,4.442,3.158,7.602,3.158s5.726-1.086,7.601-3.158c1.876-2.172,2.863-5.035,2.863-8.688
		c0-3.653-0.987-6.614-2.863-8.688C105.332,10.458,102.766,9.373,99.606,9.373z M104.345,27.734
		c-1.185,1.48-2.764,2.172-4.738,2.172c-2.073,0-3.653-0.691-4.837-2.172c-1.185-1.481-1.678-3.653-1.678-6.417
		c0-2.961,0.592-5.133,1.678-6.516c1.185-1.382,2.764-2.172,4.837-2.172s3.652,0.691,4.738,2.172
		c1.086,1.481,1.678,3.554,1.678,6.516C106.122,24.18,105.529,26.352,104.345,27.734z"/>
	<polygon fill="#2C628F" stroke="#FFFFFF" stroke-width="0.25" stroke-miterlimit="10" points="124.188,27.932 117.277,9.965 
		113.131,9.965 122.213,32.571 126.063,32.571 135.145,9.965 131.196,9.965 	"/>
	<polygon fill="#2C628F" stroke="#FFFFFF" stroke-width="0.25" stroke-miterlimit="10" points="159.923,9.965 155.086,9.965 
		144.129,21.317 144.129,1.08 140.278,1.08 140.278,32.571 144.129,32.571 144.129,25.068 146.596,22.699 155.678,32.571 
		160.614,32.571 149.36,20.429 	"/>
	<path fill="#2C628F" stroke="#FFFFFF" stroke-width="0.25" stroke-miterlimit="10" d="M181.543,13.617
		c-0.494-0.987-1.086-1.777-1.975-2.369s-1.876-1.086-3.061-1.382c-1.185-0.296-2.566-0.395-4.146-0.395
		c-1.382,0-2.764,0.099-4.146,0.395c-1.381,0.197-2.467,0.493-3.258,0.691v3.85h0.198c1.283-0.494,2.566-0.889,3.85-1.185
		c1.284-0.296,2.37-0.395,3.356-0.395c0.79,0,1.58,0.099,2.369,0.197c0.79,0.099,1.383,0.296,1.975,0.592
		c0.592,0.296,0.987,0.79,1.283,1.382c0.297,0.592,0.494,1.283,0.494,2.172v0.592c-2.172,0.099-4.245,0.296-6.22,0.493
		c-1.974,0.198-3.554,0.593-4.937,1.185c-1.381,0.592-2.369,1.48-3.158,2.468c-0.691,1.086-1.086,2.468-1.086,4.146
		c0,2.073,0.691,3.851,2.172,5.134s3.158,1.975,5.133,1.975c1.086,0,2.074-0.1,2.863-0.297s1.58-0.494,2.172-0.789
		c0.494-0.198,1.086-0.593,1.678-0.988c0.593-0.395,0.987-0.69,1.383-0.986v2.468h3.751V17.27
		C182.233,15.789,182.036,14.604,181.543,13.617z M178.383,27.043c-0.986,0.691-1.974,1.382-3.06,1.875
		c-1.086,0.494-2.37,0.791-3.653,0.791c-1.579,0-2.764-0.297-3.553-0.988c-0.79-0.69-1.186-1.579-1.186-2.961
		c0-1.185,0.297-2.073,0.988-2.666c0.69-0.691,1.578-1.185,2.664-1.481c0.889-0.296,2.172-0.493,3.752-0.592
		c1.58-0.099,2.961-0.197,4.047-0.296V27.043z"/>
</g>
<g>
	<rect x="188.354" y="29.709" fill="#2C628F" width="2.469" height="2.862"/>
	<path fill="#2C628F" d="M200.891,20.922c-0.69,0-1.283,0.099-1.975,0.395c-0.592,0.296-1.283,0.691-1.875,1.185v-1.283h-1.875
		v11.353h1.875v-8.49c0.494-0.395,1.086-0.691,1.678-0.987c0.593-0.296,1.086-0.395,1.679-0.395c0.493,0,0.889,0.099,1.283,0.198
		c0.396,0.099,0.593,0.395,0.69,0.592c0.198,0.296,0.297,0.592,0.297,1.086c0.099,0.493,0.099,0.987,0.099,1.48v6.516h1.876v-7.305
		c0-1.382-0.297-2.468-0.987-3.159C203.063,21.317,202.174,20.922,200.891,20.922z"/>
	<path fill="#2C628F" d="M213.033,20.922c-1.678,0-2.961,0.592-3.949,1.678c-0.986,1.086-1.48,2.567-1.48,4.442
		c0,1.875,0.494,3.356,1.58,4.344c1.086,0.986,2.468,1.48,4.344,1.48c0.69,0,1.48-0.099,2.072-0.296
		c0.691-0.198,1.283-0.396,1.975-0.691v-2.073h-0.099c-0.296,0.297-0.888,0.593-1.679,0.889c-0.789,0.297-1.579,0.494-2.369,0.494
		c-0.592,0-1.086-0.1-1.579-0.197c-0.493-0.197-0.888-0.396-1.283-0.691c-0.396-0.297-0.69-0.79-0.889-1.283
		c-0.197-0.494-0.296-1.086-0.296-1.777h8.292v-0.987c0-1.678-0.395-2.863-1.283-3.751
		C215.699,21.416,214.514,20.922,213.033,20.922z M209.479,25.661c0.099-0.889,0.396-1.678,0.987-2.271
		c0.592-0.593,1.382-0.889,2.468-0.889c0.987,0,1.776,0.296,2.271,0.79c0.494,0.592,0.79,1.284,0.79,2.271h-6.516V25.661z"/>
	<path fill="#2C628F" d="M226.558,22.897v-1.58h-3.948V18.06h-1.876v3.258h-1.283v1.58h1.283v6.021c0,1.383,0.296,2.369,0.888,2.962
		c0.593,0.593,1.481,0.889,2.666,0.889c0.297,0,0.691,0,1.086-0.099s0.789-0.099,1.185-0.197v-1.678h-0.099
		c-0.197,0.098-0.395,0.098-0.691,0.197c-0.296,0.098-0.69,0.098-0.986,0.098c-0.494,0-0.889-0.098-1.186-0.197
		c-0.296-0.098-0.493-0.296-0.592-0.592c-0.197-0.297-0.297-0.592-0.297-0.889c0-0.296,0-0.789,0-1.382v-5.133H226.558z"/>
</g>
<g>
	<path fill="#2C628F" d="M3.455,43.134c-0.987,0-1.777,0.296-2.369,0.889s-0.889,1.283-0.889,2.271v1.086
		c0,0.889,0.296,1.678,0.889,2.271s1.382,0.888,2.369,0.888s1.777-0.295,2.369-0.888s0.889-1.283,0.889-2.271v-1.185
		c0-0.889-0.296-1.679-0.889-2.271S4.442,43.134,3.455,43.134z M6.022,47.379c0,0.789-0.198,1.382-0.691,1.875
		c-0.493,0.494-1.085,0.691-1.875,0.691c-0.79,0-1.382-0.197-1.875-0.691c-0.494-0.493-0.691-1.086-0.691-1.875v-1.185
		c0-0.79,0.197-1.382,0.691-1.876c0.395-0.493,1.086-0.691,1.875-0.691c0.79,0,1.481,0.198,1.875,0.691
		c0.494,0.494,0.691,1.086,0.691,1.876V47.379z"/>
	<polygon fill="#2C628F" points="9.082,50.34 9.674,50.34 9.674,43.727 14.512,43.727 14.512,50.34 15.203,50.34 15.203,43.232 
		9.082,43.232 	"/>
	<polygon fill="#2C628F" points="17.078,43.727 20.04,43.727 20.04,50.34 20.731,50.34 20.731,43.727 23.495,43.727 23.495,43.232 
		17.078,43.232 	"/>
	<path fill="#2C628F" d="M28.135,43.134c-0.987,0-1.777,0.296-2.369,0.889c-0.593,0.593-0.889,1.283-0.889,2.271v1.086
		c0,0.889,0.296,1.678,0.889,2.271c0.592,0.593,1.382,0.888,2.369,0.888c0.987,0,1.777-0.295,2.369-0.888s0.888-1.283,0.888-2.271
		v-1.185c0-0.889-0.296-1.679-0.888-2.271S29.122,43.134,28.135,43.134z M30.701,47.379c0,0.789-0.197,1.382-0.691,1.875
		c-0.494,0.494-1.086,0.691-1.875,0.691c-0.79,0-1.382-0.197-1.876-0.691c-0.395-0.493-0.592-1.086-0.592-1.875v-1.185
		c0-0.79,0.198-1.382,0.691-1.876c0.395-0.493,1.085-0.691,1.875-0.691c0.79,0,1.48,0.198,1.875,0.691
		c0.494,0.494,0.691,1.086,0.691,1.876v1.185H30.701z"/>
	<path fill="#2C628F" d="M37.71,46.589c0.395-0.099,0.691-0.296,0.987-0.593c0.198-0.295,0.395-0.592,0.395-0.986
		c0-0.592-0.197-1.086-0.691-1.383c-0.494-0.295-1.185-0.493-2.073-0.493H33.86v7.206h3.06c0.79,0,1.481-0.197,1.975-0.493
		s0.592-0.888,0.592-1.48c0-0.493-0.198-0.889-0.494-1.185C38.599,46.885,38.204,46.688,37.71,46.589z M34.453,43.727h1.777
		c0.691,0,1.185,0.099,1.58,0.296s0.494,0.593,0.494,0.987s-0.198,0.789-0.494,0.986c-0.296,0.297-0.79,0.396-1.284,0.396h-1.974
		v-2.665H34.453z M38.303,49.452c-0.395,0.296-0.79,0.395-1.481,0.395h-2.369v-2.962h2.271h0.099c0.592,0,1.086,0.197,1.382,0.396
		c0.296,0.197,0.493,0.593,0.493,1.086C38.796,48.859,38.599,49.156,38.303,49.452z"/>
	<path fill="#2C628F" d="M43.831,43.232l-3.06,7.107h0.691l0.889-1.974h3.652l0.79,1.974h0.691l-3.061-7.206h-0.592V43.232z
		 M42.547,47.873l1.58-3.752l0,0l1.58,3.752H42.547z"/>
	<path fill="#2C628F" d="M49.754,43.727c-0.494,0.395-0.79,0.889-0.79,1.48c0,0.395,0.099,0.789,0.395,1.086
		c0.296,0.296,0.691,0.494,1.283,0.691l-1.974,3.258h0.79l1.876-3.16h2.369v3.258h0.691v-7.206h-2.566
		C51.037,43.232,50.346,43.332,49.754,43.727z M53.703,46.688h-2.073c-0.592,0-1.086-0.099-1.382-0.395
		c-0.296-0.297-0.494-0.592-0.494-1.086s0.197-0.889,0.592-1.185s0.888-0.396,1.58-0.396h1.875v3.061H53.703z"/>
	<polygon fill="#2C628F" points="60.317,50.34 61.008,50.34 61.008,43.727 65.746,43.727 65.746,50.34 66.437,50.34 66.437,43.232 
		60.317,43.232 	"/>
	<path fill="#2C628F" d="M74.039,43.727c-0.494-0.395-1.185-0.593-2.073-0.593h-2.863v7.206h0.691v-2.961h2.271
		c0.889,0,1.58-0.197,2.073-0.592c0.494-0.396,0.691-0.889,0.691-1.481C74.828,44.615,74.532,44.121,74.039,43.727z M73.644,46.392
		c-0.296,0.296-0.889,0.493-1.58,0.493h-2.172v-3.158h2.172c0.691,0,1.185,0.197,1.58,0.493c0.296,0.296,0.494,0.691,0.494,1.185
		C74.137,45.701,73.94,46.096,73.644,46.392z"/>
	<path fill="#2C628F" d="M79.863,43.134c-0.987,0-1.777,0.296-2.369,0.889s-0.889,1.283-0.889,2.271v1.086
		c0,0.889,0.296,1.678,0.889,2.271s1.382,0.888,2.369,0.888s1.777-0.295,2.369-0.888s0.889-1.283,0.889-2.271v-1.185
		c0-0.889-0.296-1.679-0.889-2.271S80.85,43.134,79.863,43.134z M82.43,47.379c0,0.789-0.198,1.382-0.691,1.875
		c-0.493,0.494-1.086,0.691-1.875,0.691s-1.382-0.197-1.875-0.691c-0.494-0.493-0.691-1.086-0.691-1.875v-1.185
		c0-0.79,0.197-1.382,0.691-1.876c0.395-0.493,1.086-0.691,1.875-0.691s1.481,0.198,1.875,0.691
		c0.494,0.494,0.691,1.086,0.691,1.876V47.379z"/>
	<path fill="#2C628F" d="M91.512,43.232h-4.442l-0.198,2.566c-0.099,1.283-0.296,2.369-0.592,3.061
		c-0.296,0.691-0.79,1.086-1.283,1.086h-0.395v2.271h0.691V50.34h6.515v1.777h0.691v-2.271H91.61v-6.614H91.512z M90.82,49.847
		h-4.64c0.395-0.395,0.691-0.888,0.889-1.579c0.197-0.691,0.395-1.58,0.395-2.566l0.198-2.074h3.159V49.847z"/>
	<path fill="#2C628F" d="M96.744,43.232l-3.061,7.107h0.691l0.888-1.974h3.653l0.79,1.974h0.691l-3.06-7.206h-0.592V43.232z
		 M95.46,47.873l1.579-3.752l0,0l1.58,3.752H95.46z"/>
	<polygon fill="#2C628F" points="110.367,43.232 109.478,43.232 106.813,46.392 106.319,46.392 106.319,43.232 105.628,43.232 
		105.628,46.392 105.135,46.392 102.469,43.232 101.581,43.232 104.542,46.688 101.383,50.34 102.272,50.34 105.135,46.885 
		105.628,46.885 105.628,50.34 106.319,50.34 106.319,46.885 106.813,46.885 109.676,50.34 110.564,50.34 107.405,46.688 	"/>
	<path fill="#2C628F" d="M114.611,43.232l-3.06,7.107h0.691l0.889-1.974h3.652l0.79,1.974h0.69l-3.06-7.206h-0.592V43.232z
		 M113.229,47.873l1.58-3.752l0,0l1.58,3.752H113.229z"/>
	<path fill="#2C628F" d="M126.457,43.134c-0.986,0-1.776,0.296-2.369,0.889c-0.592,0.593-0.888,1.283-0.888,2.271v1.086
		c0,0.889,0.296,1.678,0.888,2.271c0.593,0.593,1.383,0.888,2.369,0.888c0.988,0,1.777-0.295,2.37-0.888s0.888-1.283,0.888-2.271
		v-1.185c0-0.889-0.295-1.679-0.888-2.271S127.445,43.134,126.457,43.134z M129.024,47.379c0,0.789-0.197,1.382-0.69,1.875
		c-0.494,0.494-1.086,0.691-1.877,0.691c-0.789,0-1.381-0.197-1.875-0.691c-0.494-0.493-0.691-1.086-0.691-1.875v-1.185
		c0-0.79,0.197-1.382,0.691-1.876c0.395-0.493,1.086-0.691,1.875-0.691c0.791,0,1.481,0.198,1.877,0.691
		c0.493,0.494,0.69,1.086,0.69,1.876V47.379z"/>
	<path fill="#2C628F" d="M136.823,46.787c-0.493-0.396-1.185-0.593-2.073-0.593h-2.073v-2.468h4.344v-0.494h-5.034v7.107h2.764
		c0.889,0,1.58-0.197,2.073-0.592s0.69-0.889,0.69-1.48C137.514,47.675,137.316,47.182,136.823,46.787z M136.33,49.354
		c-0.297,0.296-0.889,0.493-1.58,0.493h-2.073v-3.159h2.073c0.691,0,1.185,0.197,1.58,0.494c0.295,0.296,0.493,0.691,0.493,1.086
		C136.823,48.761,136.725,49.057,136.33,49.354z"/>
	<path fill="#2C628F" d="M142.647,47.873L142.647,47.873l-0.396-0.691l-2.27-3.949h-0.79l3.159,5.232l-0.297,0.494
		c-0.197,0.295-0.395,0.493-0.592,0.69s-0.494,0.296-0.889,0.296c-0.197,0-0.395,0-0.592-0.099c-0.197,0-0.395-0.099-0.494-0.099
		l-0.099,0.494c0.099,0.098,0.296,0.098,0.493,0.197c0.197,0,0.494,0.098,0.691,0.098c0.592,0,0.987-0.098,1.283-0.395
		c0.297-0.296,0.593-0.592,0.79-0.986l3.356-5.924h-0.79L142.647,47.873z"/>
	<path fill="#2C628F" d="M152.025,46.589c0.395-0.099,0.691-0.296,0.987-0.593c0.198-0.295,0.396-0.592,0.396-0.986
		c0-0.592-0.197-1.086-0.691-1.383c-0.494-0.295-1.185-0.493-2.073-0.493h-2.566v7.206h3.06c0.79,0,1.481-0.197,1.975-0.493
		c0.494-0.296,0.691-0.79,0.691-1.48c0-0.493-0.197-0.889-0.494-1.185C153.013,46.885,152.52,46.688,152.025,46.589z
		 M148.768,43.727h1.777c0.691,0,1.185,0.099,1.58,0.296c0.395,0.197,0.493,0.593,0.493,0.987s-0.198,0.789-0.493,0.986
		c-0.297,0.198-0.791,0.396-1.383,0.396h-1.975V43.727L148.768,43.727z M152.52,49.452c-0.395,0.296-0.79,0.395-1.48,0.395h-2.369
		v-2.962h2.27h0.1c0.592,0,1.086,0.197,1.381,0.396c0.297,0.197,0.494,0.593,0.494,1.086
		C153.111,48.859,152.914,49.156,152.52,49.452z"/>
	<polygon fill="#2C628F" points="161.404,43.232 156.666,49.354 156.566,49.254 156.566,43.232 155.875,43.232 155.875,50.34 
		156.566,50.34 161.305,44.22 161.404,44.22 161.404,50.34 162.095,50.34 162.095,43.232 	"/>
</g>
<circle fill="#2C628F" stroke="#FFFFFF" stroke-width="0.25" stroke-miterlimit="10" cx="188.848" cy="30.3" r="2.961"/>
</svg>
